<mxfile host="app.diagrams.net" modified="2024-07-08T23:09:25.841Z" agent="Mozilla/5.0 (Windows NT 10.0; Win64; x64) AppleWebKit/537.36 (KHTML, like Gecko) Chrome/109.0.0.0 Safari/537.36" version="24.6.4" etag="9KSk2hChVW4d1wfMpD9l" type="github">
  <diagram name="Page-1" id="f9ycR82Z1sTw8aQRKUT8">
    <mxGraphModel>
      <root>
        <mxCell id="0" />
        <mxCell id="1" parent="0" />
      </root>
    </mxGraphModel>
  </diagram>
</mxfile>
